PathFileType	4	(X/Y/Z)	paretic_post_fc0300a5.trc
DataRate	CameraRate	NumFrames	NumMarkers	Units	OrigDataRate	OrigDataStartFrame	OrigNumFrames
56.76	56.76	11	11	cm	56.76	325	433
Frame#	Time	NOSE			LEFT_SHOULDER			RIGHT_SHOULDER			LEFT_ELBOW			RIGHT_ELBOW			LEFT_WRIST			RIGHT_WRIST			LEFT_HIP			RIGHT_HIP			LEFT_INDEX			RIGHT_INDEX		
		X1	Y1	Z1	X2	Y2	Z2	X3	Y3	Z3	X4	Y4	Z4	X5	Y5	Z5	X6	Y6	Z6	X7	Y7	Z7	X8	Y8	Z8	X9	Y9	Z9	X10	Y10	Z10	X11	Y11	Z11
360	6.34233870967742	3.681987	-62.736454	-38.445059	7.277730	-52.232919	3.952590	-24.958100	-56.195410	-14.896131	11.499418	-23.129149	4.238116	-23.950275	-14.923589	-24.819809	26.924878	-7.740427	-7.101698	-2.648166	-0.666637	-34.235426	10.008929	-2.766958	12.610627	-9.658698	2.159840	-12.207519	29.045447	-5.612526	-12.014800	12.654792	-7.422504	-43.180610
361	6.359956317204301	3.711588	-62.781531	-38.294623	7.311725	-52.721699	4.030039	-24.897880	-56.407348	-15.121978	11.553060	-23.544893	4.050304	-23.467777	-15.162784	-24.927297	26.975923	-8.588739	-7.286861	-1.768986	-0.800455	-34.213434	10.014530	-2.773191	12.642233	-9.664969	2.166139	-12.244074	29.064095	-6.514664	-12.106714	13.582115	-7.480825	-43.158821
362	6.377573924731183	3.733310	-62.992311	-37.068808	7.349511	-52.822021	4.585334	-24.822568	-56.437117	-14.950142	11.613267	-23.616984	4.200502	-23.351393	-15.182068	-24.676241	26.952319	-9.006305	-7.330070	-1.781520	-0.828942	-33.505107	10.018732	-2.771218	12.643609	-9.669903	2.164006	-12.246827	29.006632	-7.021218	-12.183098	13.620210	-7.476550	-42.296490
363	6.395191532258065	4.234954	-63.077953	-37.242528	7.374783	-53.035031	4.492600	-24.678911	-56.459551	-15.530896	11.664840	-24.102846	4.130295	-23.001451	-15.331848	-25.292328	26.990055	-9.940763	-7.324079	-1.269821	-1.211352	-33.769314	10.014192	-2.775395	12.696431	-9.667367	2.167193	-12.311847	29.032106	-8.068758	-12.140096	14.297629	-7.789122	-42.537242
364	6.4128091397849465	4.670274	-63.012515	-37.961855	7.757585	-53.038264	3.964347	-24.207814	-56.486686	-15.853016	11.753603	-24.111795	3.107435	-22.399543	-15.383221	-25.656989	27.016624	-9.942611	-8.191598	-0.752072	-1.283609	-34.016557	10.014513	-2.775859	12.713451	-9.667865	2.167413	-12.335640	29.076497	-8.096716	-12.931007	14.758016	-7.807447	-42.780159
365	6.430426747311828	5.241151	-62.800439	-38.785669	7.790508	-52.990323	3.267698	-23.890304	-56.375240	-16.944224	11.803512	-24.115508	2.730083	-22.299207	-15.425653	-26.483791	26.928129	-9.951086	-8.292342	-0.354462	-1.305644	-34.294961	10.006923	-2.777465	12.731748	-9.660793	2.168552	-12.361950	28.900874	-8.184184	-12.927761	15.456722	-7.790212	-42.977198
366	6.44804435483871	5.292633	-62.823318	-38.625553	7.800121	-52.989319	3.371487	-23.866820	-56.403455	-16.636385	11.835611	-24.136877	2.602623	-22.158178	-15.437663	-26.536224	27.015511	-9.933272	-8.594033	-0.216814	-1.543181	-34.446215	10.008041	-2.780102	12.735413	-9.661781	2.171011	-12.367197	29.008560	-8.104771	-13.229013	15.569024	-7.935675	-43.077484
367	6.4656619623655915	5.843357	-62.834162	-38.972802	7.864983	-52.994106	2.907688	-23.565184	-56.353122	-17.290482	11.894295	-24.169828	2.334572	-21.909369	-15.456563	-27.020116	27.160400	-9.938313	-8.766088	-0.023030	-1.551929	-34.661491	10.000779	-2.785590	12.745230	-9.654944	2.176218	-12.379826	29.186581	-8.095165	-13.393657	15.740009	-7.939773	-43.225695
368	6.483279569892473	5.761703	-62.623770	-39.030961	7.711500	-52.840671	2.689514	-23.777413	-56.141528	-17.105849	11.870123	-24.045879	1.865659	-22.041517	-15.266768	-26.832096	27.006429	-9.834022	-9.680627	-0.375280	-1.394143	-34.651084	10.002272	-2.787852	12.741998	-9.656464	2.178645	-12.376942	28.928786	-8.055195	-14.368493	15.252758	-7.750280	-43.229790
369	6.500897177419355	5.859938	-62.848527	-38.929312	8.018800	-52.997671	2.843657	-23.561324	-56.423465	-16.934462	12.466890	-24.119095	2.079390	-21.427335	-15.359700	-26.680767	28.163046	-9.809713	-9.155373	0.479967	-1.732654	-34.731988	10.005303	-2.791435	12.755860	-9.661531	2.181547	-12.390450	30.405179	-7.937703	-13.770376	16.106095	-8.251408	-43.335846
370	6.518514784946237	6.183631	-62.860585	-38.793304	8.126425	-53.041586	2.932757	-23.282054	-56.479431	-16.741469	12.571662	-24.147966	2.255240	-20.837599	-15.480671	-26.568887	28.171384	-9.857557	-8.955859	0.835643	-1.880840	-34.749622	10.003458	-2.792266	12.774192	-9.659359	2.182409	-12.413592	30.403459	-8.044829	-13.598768	16.317896	-8.312228	-43.368043
